<?xml version="1.0" encoding="utf-8"?>
<!-- Generator: Adobe Illustrator 25.0.1, SVG Export Plug-In . SVG Version: 6.00 Build 0)  -->
<svg version="1.1" id="Camada_1" xmlns="http://www.w3.org/2000/svg" xmlns:xlink="http://www.w3.org/1999/xlink" x="0px" y="0px"
	 viewBox="0 0 16 16" style="enable-background:new 0 0 16 16;" xml:space="preserve">
<style type="text/css">
	.st0{fill:#333333;}
</style>
<g>
	<g>
		<g>
			<g>
				<path class="st0" d="M13.82,9.75L13.74,9.2l0,0c0.73-1.12,1.02-2.22,1.09-3.56c0.06-1.28-0.19-2.56-0.74-3.69l-0.08-0.17
					l0.33-0.16l0.08,0.17c0.57,1.19,0.84,2.53,0.77,3.87c-0.07,1.4-0.51,2.77-1.27,3.94L13.82,9.75z"/>
				<path class="st0" d="M13.75,10.1L13.6,9.17l0.03-0.04c0.68-1.05,1-2.09,1.07-3.5c0.06-1.26-0.19-2.52-0.72-3.63l-0.14-0.28
					l0.56-0.27l0.14,0.28c0.58,1.21,0.85,2.57,0.78,3.94c-0.07,1.43-0.52,2.81-1.29,4L13.75,10.1z M13.87,9.23L13.9,9.4
					c0.7-1.12,1.1-2.42,1.17-3.75c0.07-1.32-0.2-2.64-0.76-3.81l-0.03-0.05l-0.1,0.05l0.02,0.05c0.55,1.15,0.81,2.45,0.75,3.76
					C14.88,7.06,14.55,8.17,13.87,9.23z"/>
			</g>
			<g>
				<g>
					<path class="st0" d="M7.04,11.49c-0.05,0-0.11,0-0.16,0c-0.75-0.04-1.44-0.32-2.01-0.81l-0.14-0.12l0.24-0.28l0.14,0.12
						c0.5,0.44,1.12,0.69,1.78,0.72c0.78,0.04,1.53-0.23,2.11-0.76c0.58-0.53,0.92-1.25,0.96-2.03c0.04-0.9-0.32-1.76-1-2.35
						L8.82,5.86l0.24-0.28L9.2,5.7c0.77,0.67,1.18,1.63,1.13,2.65c-0.04,0.88-0.43,1.69-1.08,2.28C8.64,11.19,7.86,11.49,7.04,11.49
						z"/>
					<path class="st0" d="M7.04,11.61c-0.06,0-0.11,0-0.17,0c-0.78-0.04-1.5-0.33-2.08-0.84l-0.24-0.2l0.41-0.47l0.24,0.21
						c0.48,0.42,1.07,0.66,1.71,0.69c0.75,0.03,1.46-0.22,2.02-0.72c0.55-0.5,0.88-1.19,0.91-1.94c0.04-0.86-0.31-1.68-0.96-2.25
						L8.64,5.87L9.05,5.4l0.23,0.21c0.8,0.69,1.22,1.7,1.17,2.75c-0.04,0.91-0.44,1.76-1.12,2.37C8.7,11.3,7.89,11.61,7.04,11.61z
						 M4.91,10.54l0.04,0.04c0.54,0.47,1.21,0.74,1.93,0.78c0.86,0.05,1.66-0.25,2.28-0.82c0.63-0.57,1-1.35,1.04-2.19
						c0.05-0.97-0.35-1.9-1.08-2.54L9.07,5.76L9,5.85l0.04,0.04c0.71,0.62,1.09,1.51,1.05,2.45c-0.04,0.82-0.39,1.57-1,2.12
						c-0.6,0.55-1.4,0.82-2.2,0.79c-0.69-0.03-1.34-0.29-1.86-0.75l-0.04-0.04L4.91,10.54z"/>
				</g>
				<g>
					
						<rect x="5.46" y="7.22" transform="matrix(0.657 -0.7538 0.7538 0.657 -2.9331 8.3568)" class="st0" width="4.51" height="0.37"/>
					<path class="st0" d="M6.39,9.4L5.92,8.99L9.05,5.4l0.47,0.41l-0.08,0.1L6.39,9.4z M6.28,8.97l0.09,0.08l2.8-3.21L9.07,5.76
						L6.28,8.97z"/>
				</g>
				<g>
					
						<rect x="-0.52" y="12.77" transform="matrix(0.657 -0.7539 0.7539 0.657 -8.7794 6.6134)" class="st0" width="6.79" height="0.37"/>
					<path class="st0" d="M0.84,15.76l-0.52-0.36l4.63-5.31l0.47,0.41L0.84,15.76z M0.69,15.38l0.09,0.08l4.29-4.93l-0.09-0.07
						L0.69,15.38z"/>
				</g>
			</g>
			<g>
				<path class="st0" d="M6.76,13.78c-0.87,0-1.7-0.19-2.47-0.57l-0.17-0.08l0.21-0.31l0.12,0.06c0.68,0.33,1.4,0.51,2.16,0.53
					c2.98,0.08,5.42-2.26,5.46-5.24c0.01-1.22-0.37-2.37-1.12-3.33l-0.11-0.15l0.18-0.14c0.06-0.05,0.15-0.04,0.2,0.03l0.02,0.03
					c0.79,1.01,1.2,2.21,1.2,3.49C12.44,11.23,9.89,13.78,6.76,13.78z"/>
				<path class="st0" d="M6.76,13.9c-0.89,0-1.74-0.19-2.53-0.58l-0.3-0.15l0.36-0.52l0.21,0.1c0.66,0.32,1.37,0.49,2.11,0.51
					c1.4,0.03,2.74-0.47,3.74-1.44c1-0.97,1.57-2.27,1.58-3.67c0.01-1.19-0.36-2.31-1.09-3.25l-0.19-0.25l0.28-0.22
					c0.12-0.09,0.29-0.07,0.38,0.05l0.02,0.03c0.8,1.03,1.23,2.26,1.23,3.57C12.56,11.3,9.96,13.9,6.76,13.9z M4.31,13.08l0.03,0.02
					c0.76,0.37,1.57,0.55,2.42,0.55c3.06,0,5.55-2.49,5.55-5.55c0-1.25-0.41-2.43-1.17-3.41l-0.02-0.03l-0.1,0.06l0.03,0.04
					c0.77,0.98,1.16,2.16,1.15,3.41c-0.02,1.47-0.61,2.84-1.66,3.85c-1.06,1.02-2.45,1.54-3.93,1.51c-0.77-0.02-1.52-0.2-2.21-0.54
					l-0.02-0.01L4.31,13.08z"/>
			</g>
			<g>
				<path class="st0" d="M2.48,11.83l-0.12-0.14C1.54,10.68,1.08,9.41,1.08,8.1c0-3.13,2.55-5.68,5.68-5.68
					c0.87,0,1.7,0.19,2.47,0.57L9.4,3.07L9.24,3.4L9.07,3.32c-0.72-0.35-1.5-0.53-2.31-0.53c-2.93,0-5.31,2.38-5.31,5.31
					c0,1.22,0.42,2.41,1.19,3.35l0.07,0.09L2.48,11.83z"/>
				<path class="st0" d="M2.48,12.03l-0.21-0.26C1.42,10.74,0.96,9.43,0.96,8.1c0-3.2,2.6-5.8,5.8-5.8c0.89,0,1.74,0.19,2.53,0.58
					l0.28,0.14L9.3,3.57L9.02,3.44C8.31,3.1,7.55,2.92,6.76,2.92c-2.86,0-5.18,2.32-5.18,5.18c0,1.19,0.41,2.35,1.17,3.27l0.14,0.17
					L2.48,12.03z M6.76,2.55c-3.06,0-5.55,2.49-5.55,5.55c0,1.28,0.44,2.52,1.25,3.51l0.02,0.02l0.07-0.09l-0.01-0.01
					C1.76,10.57,1.33,9.35,1.33,8.1c0-3,2.44-5.43,5.43-5.43c0.83,0,1.62,0.18,2.37,0.54l0.05,0.02l0.05-0.1L9.18,3.11
					C8.42,2.74,7.61,2.55,6.76,2.55z"/>
			</g>
			<g>
				<path class="st0" d="M11.08,4.97l-0.13-0.13c-0.49-0.47-0.8-1.15-0.8-1.76c0-1.1,0.75-2.05,1.82-2.3l0.18,0.01l0.09,0.31
					l-0.18,0.04c-0.9,0.21-1.53,1.01-1.53,1.94c0,0.61,0.34,1.16,0.67,1.48c0.01,0.01,0.02,0.02,0.03,0.03l0.07,0.12L11.08,4.97z"/>
				<path class="st0" d="M11.1,5.16l-0.23-0.22c-0.52-0.5-0.84-1.21-0.84-1.85c0-1.16,0.79-2.16,1.92-2.42l0.02,0l0.29,0.01
					l0.14,0.53l-0.31,0.07c-0.84,0.2-1.43,0.95-1.43,1.81c0,0.57,0.33,1.09,0.63,1.39c0.02,0.02,0.03,0.03,0.05,0.06l0.12,0.19
					L11.1,5.16z M11.98,0.91c-1,0.24-1.7,1.13-1.7,2.17c0,0.58,0.29,1.22,0.76,1.67l0.03,0.03l0.06-0.08l-0.02-0.04
					c-0.35-0.35-0.72-0.94-0.72-1.58c0-0.99,0.67-1.84,1.63-2.06L12.08,1l-0.03-0.09L11.98,0.91z"/>
			</g>
			<g>
				<path class="st0" d="M14.29,2.05l-0.29-0.27l0.82-0.94l-2.98,0.33l-0.02-0.18c-0.01-0.1,0.06-0.2,0.17-0.21l3.71-0.41
					L14.29,2.05z"/>
				<path class="st0" d="M14.3,2.24l-0.47-0.45L14.52,1l-2.78,0.3L11.7,1c-0.01-0.08,0.01-0.16,0.07-0.23
					c0.05-0.07,0.13-0.11,0.21-0.12L16,0.21L14.3,2.24z M14.18,1.77l0.1,0.1l1.12-1.34L12.01,0.9c-0.02,0-0.03,0.02-0.04,0.02
					c-0.01,0.01-0.01,0.02-0.01,0.04l0.01,0.06l3.18-0.35L14.18,1.77z"/>
			</g>
			<g>
				
					<rect x="8.74" y="13.04" transform="matrix(0.8707 -0.4917 0.4917 0.8707 -5.8961 6.244)" class="st0" width="0.37" height="2.59"/>
				<path class="st0" d="M9.36,15.73l-1.4-2.48l0.54-0.31l1.4,2.48L9.36,15.73z M8.31,13.35l1.15,2.03l0.1-0.06l-1.15-2.03
					L8.31,13.35z"/>
			</g>
			<g>
				
					<rect x="10.63" y="12.24" transform="matrix(0.8635 -0.5043 0.5043 0.8635 -5.5686 7.361)" class="st0" width="0.37" height="3.46"/>
				<path class="st0" d="M11.48,15.73l-0.06-0.11l-1.81-3.1l0.54-0.31l0.06,0.11l1.81,3.1L11.48,15.73z M9.96,12.61l1.62,2.77
					l0.1-0.06l-1.62-2.77L9.96,12.61z"/>
			</g>
			<g>
				<rect x="7.81" y="15.26" class="st0" width="5.28" height="0.37"/>
				<path class="st0" d="M13.21,15.75H7.68v-0.62h5.53V15.75z M7.94,15.5h5.02v-0.11H7.94V15.5z"/>
			</g>
			<g>
				<path class="st0" d="M12.54,2.57c-0.12,0-0.24-0.06-0.31-0.17c-0.11-0.17-0.06-0.4,0.11-0.51c0.08-0.05,0.18-0.07,0.28-0.05
					c0.1,0.02,0.18,0.08,0.23,0.16c0.05,0.08,0.07,0.18,0.05,0.28c-0.02,0.1-0.08,0.18-0.16,0.23l0,0
					C12.68,2.55,12.61,2.57,12.54,2.57z M12.64,2.36L12.64,2.36L12.64,2.36z"/>
				<path class="st0" d="M12.54,2.7c-0.17,0-0.32-0.08-0.42-0.23c-0.15-0.23-0.08-0.54,0.15-0.69c0.11-0.07,0.25-0.1,0.37-0.07
					c0.13,0.03,0.24,0.1,0.31,0.21c0.07,0.11,0.1,0.24,0.07,0.37c-0.03,0.13-0.1,0.24-0.21,0.31C12.73,2.67,12.63,2.7,12.54,2.7z
					 M12.54,1.96c-0.05,0-0.09,0.01-0.13,0.04c-0.11,0.07-0.14,0.22-0.07,0.33c0.07,0.11,0.23,0.14,0.34,0.07
					c0.05-0.03,0.09-0.09,0.1-0.15c0.01-0.06,0-0.13-0.03-0.18c-0.04-0.05-0.09-0.09-0.15-0.11C12.57,1.96,12.55,1.96,12.54,1.96z"
					/>
			</g>
			<g>
				<polygon class="st0" points="0.29,15.64 0.51,15.39 0.79,15.64 				"/>
				<polygon class="st0" points="0.84,15.76 0.01,15.76 0.5,15.22 				"/>
			</g>
		</g>
	</g>
</g>
</svg>
